<svg width="765" height="775" viewBox="0 0 765 775" fill="none" xmlns="http://www.w3.org/2000/svg">
<path d="M74.5634 257.978C54.3339 277.265 52.4286 307.147 70.3084 324.721C72.1595 326.542 74.156 328.146 76.2617 329.561C82.1394 334.854 160.008 385.416 140.937 447.038C132.413 476.72 138.832 508.279 160.996 530.066C180.493 549.23 207.988 556.735 235.281 552.957L290.532 548.453C317.192 545.763 343.181 550.997 364.999 563.446L429.043 599.991C433.075 602.629 437.251 605.003 441.546 607.126L441.699 607.214L441.707 607.206C492.406 632.185 559.721 621.442 606.74 576.616C664.146 521.887 669.552 437.092 618.817 387.222C613.774 382.265 608.362 377.849 602.656 373.952L547.73 328.855C517.65 304.158 503.271 265.651 509.052 225.311C510.603 214.488 514.116 200.302 515.143 197.954C515.15 197.935 515.115 197.897 515.106 197.872C527.222 159.963 519.588 119.094 491.158 91.1504C448.118 48.8433 373.749 52.1835 325.051 98.6125C324.386 99.246 230.034 195.399 230.034 195.399C229.896 195.538 229.757 195.676 229.619 195.815C206.896 218.574 177.189 233.378 146.116 237.736L106.899 242.844C95.4007 244.045 83.8567 249.119 74.5634 257.978Z" fill="url(#paint0_linear_77_1832)" fill-opacity="0.5"/>
<defs>
<linearGradient id="paint0_linear_77_1832" x1="551.77" y1="618.56" x2="213.002" y2="155.996" gradientUnits="userSpaceOnUse">
<stop stop-color="#005555"/>
<stop offset="1" stop-color="#5DEBEB"/>
</linearGradient>
</defs>
</svg>
