<svg width="224" height="24" viewBox="0 0 224 24" fill="none" xmlns="http://www.w3.org/2000/svg">
<path d="M17.5 1H6.5C3.46243 1 1 3.46243 1 6.5V17.5C1 20.5376 3.46243 23 6.5 23H17.5C20.5376 23 23 20.5376 23 17.5V6.5C23 3.46243 20.5376 1 17.5 1Z" fill="#005555"/>
<path d="M16.3996 11.3031C16.5354 12.2185 16.379 13.1535 15.9528 13.975C15.5265 14.7965 14.8521 15.4626 14.0254 15.8787C13.1987 16.2948 12.2619 16.4396 11.3482 16.2926C10.4345 16.1456 9.59037 15.7142 8.93595 15.0597C8.28154 14.4053 7.85013 13.5612 7.7031 12.6475C7.55607 11.7338 7.7009 10.7969 8.11699 9.97027C8.53308 9.1436 9.19923 8.46917 10.0207 8.04292C10.8422 7.61668 11.7772 7.46031 12.6926 7.59606C13.6264 7.73453 14.491 8.16967 15.1585 8.8372C15.826 9.50472 16.2612 10.3692 16.3996 11.3031Z" stroke="white" stroke-width="2" stroke-linecap="round" stroke-linejoin="round"/>
<path d="M18.05 5.94995H18.061" stroke="white" stroke-width="2" stroke-linecap="round" stroke-linejoin="round"/>
<g clip-path="url(#clip0_329_4362)">
<path fill-rule="evenodd" clip-rule="evenodd" d="M50 12.067C50 18.033 54.333 22.994 60 24V15.333H57V12H60V9.333C60 6.333 61.933 4.667 64.667 4.667C65.533 4.667 66.467 4.8 67.333 4.933V8H65.8C64.333 8 64 8.733 64 9.667V12H67.2L66.667 15.333H64V24C69.667 22.994 74 18.034 74 12.067C74 5.43 68.6 0 62 0C55.4 0 50 5.43 50 12.067Z" fill="#005555"/>
</g>
<path fill-rule="evenodd" clip-rule="evenodd" d="M101 2.838C101 2.35053 101.194 1.88303 101.538 1.53834C101.883 1.19365 102.351 1 102.838 1H121.16C121.402 0.999608 121.641 1.04687 121.864 1.13907C122.087 1.23127 122.29 1.36661 122.461 1.53734C122.632 1.70807 122.768 1.91083 122.86 2.13401C122.953 2.3572 123 2.59643 123 2.838V21.16C123 21.4016 122.953 21.6409 122.861 21.8642C122.768 22.0875 122.633 22.2904 122.462 22.4613C122.291 22.6322 122.088 22.7678 121.865 22.8602C121.642 22.9526 121.403 23.0001 121.161 23H102.838C102.597 23 102.357 22.9524 102.134 22.86C101.911 22.7676 101.709 22.6321 101.538 22.4613C101.367 22.2905 101.232 22.0878 101.14 21.8647C101.047 21.6416 101 21.4025 101 21.161V2.838ZM109.708 9.388H112.687V10.884C113.117 10.024 114.217 9.25 115.87 9.25C119.039 9.25 119.79 10.963 119.79 14.106V19.928H116.583V14.822C116.583 13.032 116.153 12.022 115.061 12.022C113.546 12.022 112.916 13.111 112.916 14.822V19.928H109.708V9.388ZM104.208 19.791H107.416V9.25H104.208V19.79V19.791ZM107.875 5.812C107.881 6.08668 107.832 6.35979 107.731 6.61532C107.63 6.87084 107.479 7.10364 107.287 7.30003C107.095 7.49643 106.866 7.65248 106.612 7.75901C106.359 7.86554 106.087 7.92042 105.813 7.92042C105.538 7.92042 105.266 7.86554 105.013 7.75901C104.759 7.65248 104.53 7.49643 104.338 7.30003C104.146 7.10364 103.995 6.87084 103.894 6.61532C103.793 6.35979 103.744 6.08668 103.75 5.812C103.762 5.27286 103.984 4.75979 104.37 4.38269C104.755 4.00558 105.273 3.79442 105.813 3.79442C106.352 3.79442 106.87 4.00558 107.255 4.38269C107.641 4.75979 107.863 5.27286 107.875 5.812Z" fill="#005555"/>
<g clip-path="url(#clip1_329_4362)">
<path d="M174 4.36755C173.08 4.7691 172.092 5.04048 171.054 5.16257C172.113 4.53771 172.926 3.54822 173.309 2.36925C172.302 2.95737 171.201 3.37174 170.052 3.59446C169.117 2.61323 167.784 2 166.308 2C163.476 2 161.179 4.26065 161.179 7.04888C161.179 7.44466 161.225 7.82996 161.312 8.19959C157.049 7.98896 153.27 5.97893 150.74 2.92422C150.299 3.66992 150.046 4.53732 150.046 5.4625C150.046 7.21423 150.952 8.75956 152.328 9.66504C151.513 9.63993 150.717 9.42337 150.004 9.03344C150.004 9.05459 150.004 9.07574 150.004 9.09699C150.004 11.5433 151.772 13.584 154.118 14.0478C153.363 14.25 152.571 14.2796 151.802 14.1343C152.455 16.1402 154.349 17.5999 156.593 17.6408C154.838 18.9949 152.626 19.8021 150.224 19.8021C149.809 19.8021 149.401 19.7782 149 19.7316C151.27 21.1641 153.966 22 156.862 22C166.297 22 171.455 14.3064 171.455 7.63443C171.455 7.41544 171.451 7.1977 171.441 6.98121C172.445 6.26664 173.311 5.38157 174 4.36755Z" fill="#005555"/>
</g>
<path d="M213.837 11.8086L211.263 10.6078C211.039 10.5035 210.854 10.6204 210.854 10.8691V13.1309C210.854 13.3796 211.039 13.4965 211.263 13.3922L213.836 12.1914C214.061 12.0859 214.061 11.9141 213.837 11.8086ZM212 1C205.925 1 201 5.92479 201 12C201 18.0752 205.925 23 212 23C218.075 23 223 18.0752 223 12C223 5.92479 218.075 1 212 1ZM212 16.4687C206.369 16.4687 206.271 15.9611 206.271 12C206.271 8.03885 206.369 7.53125 212 7.53125C217.631 7.53125 217.729 8.03885 217.729 12C217.729 15.9611 217.631 16.4687 212 16.4687Z" fill="#005555"/>
<defs>
<clipPath id="clip0_329_4362">
<rect width="24" height="24" fill="white" transform="translate(50)"/>
</clipPath>
<clipPath id="clip1_329_4362">
<rect width="24" height="24" fill="white" transform="translate(150)"/>
</clipPath>
</defs>
</svg>
