<svg width="276" height="19" viewBox="0 0 276 19" fill="none" xmlns="http://www.w3.org/2000/svg">
<path d="M274.2 6.75713C274.393 6.6127 274.631 6.54258 274.871 6.55965C275.111 6.57671 275.337 6.67981 275.507 6.85002C275.677 7.02023 275.78 7.24613 275.797 7.48624C275.815 7.72635 275.744 7.96456 275.6 8.15713L271.6 12.1571C271.413 12.3404 271.162 12.443 270.9 12.443C270.638 12.443 270.387 12.3404 270.2 12.1571L266.2 8.15713C266.056 7.96456 265.985 7.72635 266.003 7.48624C266.02 7.24613 266.123 7.02023 266.293 6.85002C266.463 6.67981 266.689 6.57671 266.929 6.55965C267.169 6.54258 267.407 6.6127 267.6 6.75713L270.9 10.0471L274.2 6.74713V6.75713Z" fill="#71717A"/>
</svg>
