<svg width="144" height="26" viewBox="0 0 144 26" fill="none" xmlns="http://www.w3.org/2000/svg">
<path d="M18 2H15C13.6739 2 12.4021 2.52678 11.4645 3.46447C10.5268 4.40215 10 5.67392 10 7V10H7V14H10V22H14V14H17L18 10H14V7C14 6.73478 14.1054 6.48043 14.2929 6.29289C14.4804 6.10536 14.7348 6 15 6H18V2Z" stroke="white" stroke-width="2" stroke-linecap="round" stroke-linejoin="round"/>
<g clip-path="url(#clip0_2537_16178)">
<path d="M64.5 20.75C64.5 20.75 68.25 20 69 17.75C69 17.75 63 15.5 64.5 7.25C64.5 7.25 67.5 11 72 11.75V10.2503C72.0001 9.38867 72.2968 8.55337 72.8403 7.8848C73.3838 7.21624 74.1409 6.75517 74.9843 6.57913C75.8277 6.40309 76.7061 6.5228 77.4716 6.91814C78.2371 7.31348 78.8432 7.96034 79.188 8.74997L82.5 8.75L79.5 11.75C79.5 17 75.75 22.25 69 22.25C66 22.25 64.5 20.75 64.5 20.75Z" stroke="#F4F4F5" stroke-width="2" stroke-linecap="round" stroke-linejoin="round"/>
</g>
<g clip-path="url(#clip1_2537_16178)">
<path d="M132 17.75C134.071 17.75 135.75 16.0711 135.75 14C135.75 11.9289 134.071 10.25 132 10.25C129.929 10.25 128.25 11.9289 128.25 14C128.25 16.0711 129.929 17.75 132 17.75Z" stroke="#F4F4F5" stroke-width="2" stroke-miterlimit="10"/>
<path d="M136.125 5.375H127.875C125.39 5.375 123.375 7.38972 123.375 9.875V18.125C123.375 20.6103 125.39 22.625 127.875 22.625H136.125C138.61 22.625 140.625 20.6103 140.625 18.125V9.875C140.625 7.38972 138.61 5.375 136.125 5.375Z" stroke="#F4F4F5" stroke-width="2" stroke-linecap="round" stroke-linejoin="round"/>
<path d="M136.875 10.25C137.496 10.25 138 9.74632 138 9.125C138 8.50368 137.496 8 136.875 8C136.254 8 135.75 8.50368 135.75 9.125C135.75 9.74632 136.254 10.25 136.875 10.25Z" fill="#1F2937"/>
</g>
<defs>
<clipPath id="clip0_2537_16178">
<rect width="24" height="24" fill="white" transform="translate(60 2)"/>
</clipPath>
<clipPath id="clip1_2537_16178">
<rect width="24" height="24" fill="white" transform="translate(120 2)"/>
</clipPath>
</defs>
</svg>
