<svg width="22" height="21" viewBox="0 0 22 21" fill="none" xmlns="http://www.w3.org/2000/svg">
<path d="M21.4216 8.1322C21.328 7.83822 21.1479 7.57928 20.9049 7.38918C20.6619 7.19908 20.3672 7.08664 20.0593 7.06653L14.4915 6.67688L12.426 1.47595C12.3143 1.18842 12.1182 0.94136 11.8636 0.767145C11.6091 0.592929 11.3078 0.499686 10.9993 0.499634H10.9978C10.6898 0.500183 10.3891 0.593664 10.1351 0.767853C9.88106 0.942042 9.6855 1.18883 9.57399 1.47595L7.4778 6.70691L1.94069 7.06653C1.63281 7.08664 1.33814 7.19908 1.09512 7.38918C0.852103 7.57928 0.672026 7.83822 0.578386 8.1322C0.479601 8.43036 0.47288 8.75136 0.5591 9.05339C0.64532 9.35542 0.820485 9.62449 1.06178 9.82556L5.32155 13.4261L4.05446 18.4103C3.96712 18.746 3.98318 19.1003 4.10054 19.4267C4.21789 19.7532 4.43107 20.0366 4.71217 20.2399C4.98357 20.4373 5.30811 20.5485 5.64357 20.559C5.97903 20.5694 6.30987 20.4786 6.59303 20.2985L10.9876 17.5145C10.9934 17.5101 10.9993 17.5072 11.0125 17.5145L15.741 20.5101C15.9977 20.6741 16.2979 20.7569 16.6024 20.7475C16.9069 20.738 17.2014 20.637 17.4475 20.4574C17.7022 20.2733 17.8954 20.0166 18.0018 19.7208C18.1082 19.4251 18.1228 19.1041 18.0437 18.7999L16.6975 13.3551L20.9382 9.82556C21.1795 9.62449 21.3547 9.35542 21.4409 9.05338C21.5271 8.75135 21.5204 8.43036 21.4216 8.1322Z" fill="#005555"/>
</svg>
