<svg width="33" height="33" viewBox="0 0 33 33" fill="none" xmlns="http://www.w3.org/2000/svg">
<path d="M16.4123 28.7627C22.9909 28.7627 28.324 23.3429 28.324 16.6572C28.324 9.97147 22.9909 4.55164 16.4123 4.55164C9.83357 4.55164 4.50049 9.97147 4.50049 16.6572C4.50049 23.3429 9.83357 28.7627 16.4123 28.7627Z" stroke="#1F2937" stroke-width="2" stroke-miterlimit="10"/>
<path d="M5.18262 12.6221H27.6413" stroke="#1F2937" stroke-width="2" stroke-linecap="round" stroke-linejoin="round"/>
<path d="M5.18262 20.6924H27.6413" stroke="#1F2937" stroke-width="2" stroke-linecap="round" stroke-linejoin="round"/>
<path d="M16.412 28.4349C19.1531 28.4349 21.3752 23.1618 21.3752 16.6572C21.3752 10.1526 19.1531 4.87952 16.412 4.87952C13.6708 4.87952 11.4487 10.1526 11.4487 16.6572C11.4487 23.1618 13.6708 28.4349 16.412 28.4349Z" stroke="#1F2937" stroke-width="2" stroke-miterlimit="10"/>
</svg>
